<svg width="24.000000" height="24.000000" viewBox="0 0 24 24" fill="none" xmlns="http://www.w3.org/2000/svg" xmlns:xlink="http://www.w3.org/1999/xlink">
	<desc>
			Created with Pixso.
	</desc>
	<defs/>
	<path id="Vector" d="M3.27271 0L20.7273 0C22.5347 0 24 1.46527 24 3.27271L24 20.7273C24 22.5347 22.5347 24 20.7273 24L3.27271 24C1.46527 24 0 22.5347 0 20.7273L0 3.27271C0 1.46527 1.46527 0 3.27271 0Z" fill="#D3F85A" fill-opacity="1.000000" fill-rule="evenodd"/>
	<path id="Vector" d="M15.8018 10.5791L15.5605 12.6696C15.5505 12.765 15.5057 12.8533 15.4349 12.9179C15.364 12.9825 15.2719 13.0189 15.1759 13.02L12.9941 13.02L12.9832 19.2177C12.9839 19.2912 12.9557 19.3619 12.9047 19.4148C12.8537 19.4676 12.7839 19.4982 12.7104 19.5L10.5 19.5C10.4633 19.5 10.4269 19.4926 10.3931 19.4783C10.3593 19.4639 10.3287 19.4428 10.3032 19.4163C10.2777 19.3898 10.2579 19.3585 10.2448 19.3241C10.2318 19.2897 10.2258 19.2531 10.2273 19.2164L10.2273 13.02L8.59094 13.02C8.53955 13.0195 8.48877 13.0088 8.44147 12.9886C8.39417 12.9685 8.35132 12.9392 8.31537 12.9025C8.27942 12.8658 8.25104 12.8223 8.23187 12.7747C8.21271 12.7269 8.20312 12.676 8.20367 12.6246L8.1955 10.5341C8.19476 10.4825 8.20422 10.4313 8.22327 10.3834C8.24237 10.3354 8.27069 10.2917 8.30664 10.2548C8.34259 10.2178 8.3855 10.1883 8.43286 10.1679C8.48022 10.1475 8.53119 10.1366 8.58276 10.1359L10.2273 10.1359L10.2273 8.11774C10.2273 5.77502 11.6182 4.5 13.6582 4.5L15.33 4.5C15.3817 4.50055 15.4328 4.51129 15.4803 4.53156C15.5278 4.55188 15.5709 4.58142 15.607 4.61841C15.6431 4.6554 15.6716 4.69916 15.6907 4.74713C15.7099 4.79517 15.7194 4.8465 15.7186 4.89819L15.7186 6.65729C15.7194 6.70898 15.7099 6.76025 15.6907 6.80829C15.6716 6.85632 15.6431 6.90009 15.607 6.93707C15.5709 6.97406 15.5278 7.00354 15.4803 7.02386C15.4328 7.04419 15.3817 7.05493 15.33 7.05548L14.3046 7.05548C13.1959 7.05548 12.9805 7.60089 12.9805 8.3891L12.9805 10.1359L15.4173 10.1359C15.4727 10.1366 15.5273 10.149 15.5776 10.1724C15.6279 10.1957 15.6727 10.2294 15.709 10.2712C15.7453 10.3131 15.7724 10.3622 15.7884 10.4152C15.8044 10.4683 15.809 10.5241 15.8018 10.5791Z" fill="#090F1D" fill-opacity="1.000000" fill-rule="nonzero"/>
</svg>
