<svg width="24.000000" height="24.000000" viewBox="0 0 24 24" fill="none" xmlns="http://www.w3.org/2000/svg" xmlns:xlink="http://www.w3.org/1999/xlink">
	<desc>
			Created with Pixso.
	</desc>
	<defs/>
	<path id="Vector" d="M3.27271 0L20.7273 0C22.5347 0 24 1.46527 24 3.27271L24 20.7273C24 22.5347 22.5347 24 20.7273 24L3.27271 24C1.46527 24 0 22.5347 0 20.7273L0 3.27271C0 1.46527 1.46527 0 3.27271 0Z" fill="#FFFFFF" fill-opacity="1.000000" fill-rule="evenodd"/>
	<path id="Vector" d="M18.5373 6.20428L18.2891 6.29431L4.81909 11.1475C4.72363 11.177 4.64069 11.2374 4.58325 11.3191C4.52576 11.4008 4.49701 11.4993 4.50159 11.5991C4.5061 11.699 4.54358 11.7944 4.60822 11.8707C4.67285 11.9468 4.76093 11.9995 4.85864 12.0202L8.34546 12.9747L8.99591 14.8839L9.64636 16.793C9.68378 16.8865 9.74341 16.9696 9.82013 17.0349C9.89691 17.1002 9.9884 17.1458 10.0868 17.1677C10.1851 17.1896 10.2874 17.1871 10.3846 17.1606C10.4818 17.134 10.571 17.0841 10.6446 17.0152L12.4459 15.3134L15.9832 17.712C16.4155 18.0066 17.0319 17.7884 17.1423 17.3029L19.485 6.9516C19.5995 6.43884 19.0596 6.01746 18.5373 6.20428ZM16.8177 8.50201L10.7319 13.4766L10.4455 13.7111C10.3826 13.761 10.3415 13.8334 10.3309 13.913L10.2668 14.442L10.0909 15.9284C10.0924 15.9465 10.0866 15.9644 10.0748 15.9782C10.063 15.992 10.0463 16.0006 10.0282 16.002C10.0101 16.0035 9.99219 15.9977 9.97839 15.9859C9.9646 15.9742 9.95599 15.9574 9.95459 15.9393L9.45959 14.4543L8.94818 12.9338C8.92657 12.8655 8.92944 12.7917 8.95636 12.7253C8.98322 12.6589 9.03241 12.6038 9.09546 12.5698L15.4282 8.93976L16.6201 8.25793C16.7932 8.15704 16.9705 8.37659 16.8177 8.50201Z" fill="#090F1D" fill-opacity="1.000000" fill-rule="nonzero"/>
</svg>
