<svg width="24.000000" height="24.000000" viewBox="0 0 24 24" fill="none" xmlns="http://www.w3.org/2000/svg" xmlns:xlink="http://www.w3.org/1999/xlink">
	<desc>
			Created with Pixso.
	</desc>
	<defs/>
	<path id="Vector" d="M3.27271 0L20.7273 0C22.5347 0 24 1.46527 24 3.27271L24 20.7273C24 22.5347 22.5347 24 20.7273 24L3.27271 24C1.46527 24 0 22.5347 0 20.7273L0 3.27271C0 1.46527 1.46527 0 3.27271 0Z" fill="#FFFFFF" fill-opacity="1.000000" fill-rule="evenodd"/>
	<path id="Vector" d="M8.64545 6.54547C8.64545 6.95001 8.52551 7.34546 8.30078 7.68182C8.07599 8.01825 7.75653 8.2804 7.38281 8.43518C7.00903 8.59003 6.59778 8.63055 6.20099 8.55164C5.8042 8.47266 5.43976 8.27789 5.15369 7.99182C4.86761 7.70575 4.67279 7.34131 4.59387 6.94452C4.51495 6.54773 4.55548 6.13647 4.71027 5.7627C4.86511 5.38892 5.12726 5.06946 5.46362 4.84473C5.79999 4.61993 6.1955 4.5 6.60004 4.5C7.14252 4.5 7.66278 4.71552 8.04639 5.09912C8.42999 5.48273 8.64545 6.00299 8.64545 6.54547ZM8.18182 9.95453L8.18182 18.9914C8.18219 19.058 8.16937 19.1241 8.1441 19.1858C8.11884 19.2475 8.08167 19.3036 8.03461 19.3509C7.98761 19.3981 7.9317 19.4356 7.87018 19.4612C7.80859 19.4868 7.74261 19.5 7.6759 19.5L5.52002 19.5C5.45337 19.5002 5.38733 19.4872 5.32568 19.4617C5.26404 19.4363 5.20807 19.399 5.16095 19.3518C5.11377 19.3047 5.07642 19.2487 5.05103 19.1871C5.02557 19.1254 5.01257 19.0594 5.01276 18.9927L5.01276 9.95453C5.01276 9.82001 5.06622 9.69098 5.16132 9.59583C5.25647 9.50073 5.3855 9.44727 5.52002 9.44727L7.6759 9.44727C7.81024 9.44763 7.9389 9.50122 8.03375 9.59631C8.1286 9.69141 8.18182 9.82025 8.18182 9.95453ZM19.4509 14.6591L19.4509 19.0336C19.4511 19.0949 19.4391 19.1556 19.4158 19.2123C19.3924 19.269 19.3581 19.3205 19.3148 19.3638C19.2714 19.4072 19.2199 19.4415 19.1633 19.4648C19.1066 19.4882 19.0458 19.5002 18.9846 19.5L16.6664 19.5C16.6051 19.5002 16.5444 19.4882 16.4877 19.4648C16.431 19.4415 16.3796 19.4072 16.3362 19.3638C16.2928 19.3205 16.2585 19.269 16.2352 19.2123C16.2118 19.1556 16.1998 19.0949 16.2 19.0336L16.2 14.7941C16.2 14.1614 16.3855 12.0232 14.546 12.0232C13.1209 12.0232 12.8304 13.4864 12.7732 14.1436L12.7732 19.0336C12.7732 19.1561 12.725 19.2737 12.639 19.361C12.553 19.4483 12.4362 19.4982 12.3137 19.5L10.0746 19.5C10.0134 19.5 9.95282 19.4879 9.8963 19.4645C9.83978 19.441 9.78845 19.4066 9.7453 19.3633C9.70209 19.32 9.66785 19.2686 9.64459 19.212C9.62128 19.1555 9.60938 19.0948 9.60956 19.0336L9.60956 9.91498C9.60938 9.85382 9.62128 9.79321 9.64459 9.73663C9.66785 9.68005 9.70209 9.62866 9.7453 9.58533C9.78845 9.54199 9.83978 9.50763 9.8963 9.48419C9.95282 9.46069 10.0134 9.44861 10.0746 9.44861L12.3137 9.44861C12.4373 9.44861 12.556 9.49774 12.6434 9.58521C12.7309 9.67267 12.78 9.79132 12.78 9.91498L12.78 10.7032C13.3091 9.90955 14.0932 9.2973 15.7664 9.2973C19.4728 9.2973 19.4509 12.7582 19.4509 14.6591Z" fill="#090F1D" fill-opacity="1.000000" fill-rule="nonzero"/>
</svg>
