<svg width="24.000000" height="24.000000" viewBox="0 0 24 24" fill="none" xmlns="http://www.w3.org/2000/svg" xmlns:xlink="http://www.w3.org/1999/xlink">
	<desc>
			Created with Pixso.
	</desc>
	<defs/>
	<path id="Vector" d="M3.27271 0L20.7273 0C22.5347 0 24 1.46527 24 3.27271L24 20.7273C24 22.5347 22.5347 24 20.7273 24L3.27271 24C1.46527 24 0 22.5347 0 20.7273L0 3.27271C0 1.46527 1.46527 0 3.27271 0Z" fill="#FFFFFF" fill-opacity="1.000000" fill-rule="evenodd"/>
	<path id="Vector" d="M19.4713 7.46021C19.1153 7.99207 18.6819 8.46777 18.1854 8.87158C18.121 8.92279 18.069 8.98792 18.0334 9.06207C17.9977 9.13623 17.9793 9.21747 17.9795 9.29974L17.9795 9.35022C17.9738 10.4219 17.7771 11.4839 17.3986 12.4866C17.0087 13.5375 16.4296 14.508 15.6899 15.3502C14.7005 16.4781 13.426 17.3193 11.9999 17.7856C11.0603 18.0906 10.0779 18.2435 9.08997 18.2384C7.52539 18.2368 5.98901 17.8219 4.63635 17.0357C4.58789 17.0082 4.5498 16.9655 4.52789 16.9143C4.50598 16.8631 4.5014 16.8061 4.51495 16.752C4.52869 16.6986 4.55988 16.6513 4.60364 16.6177C4.6474 16.584 4.70117 16.5661 4.75635 16.5666L5.12994 16.5666C6.31915 16.5664 7.4812 16.2107 8.4668 15.5452C7.87927 15.4492 7.32953 15.1933 6.87781 14.8055C6.42609 14.4178 6.08984 13.9132 5.90588 13.347C5.89685 13.3192 5.89526 13.2894 5.90118 13.2606C5.90717 13.2319 5.92053 13.2052 5.93988 13.1832C5.95929 13.1612 5.98407 13.1446 6.01184 13.1351C6.03955 13.1255 6.06934 13.1234 6.09814 13.1288C6.27795 13.163 6.46057 13.1804 6.64362 13.1807L6.71179 13.1807C6.14233 12.919 5.66089 12.498 5.32574 11.9685C4.99054 11.439 4.81598 10.8237 4.82312 10.197C4.82355 10.1677 4.83154 10.1389 4.84631 10.1135C4.86115 10.0881 4.88226 10.0669 4.90765 10.0521C4.93304 10.0373 4.96185 10.0292 4.99121 10.0289C5.02063 10.0284 5.04962 10.0356 5.07544 10.0497C5.30646 10.1788 5.55426 10.2751 5.81177 10.3361C5.30188 9.83197 4.97363 9.17291 4.87866 8.46216C4.78363 7.7514 4.92719 7.02924 5.2868 6.40887C5.3006 6.38599 5.31958 6.3667 5.34229 6.3526C5.36493 6.3385 5.39062 6.33002 5.41724 6.32776C5.44385 6.3255 5.47058 6.32953 5.4953 6.3396C5.52008 6.34967 5.54205 6.36548 5.55951 6.38568C6.27368 7.26855 7.15796 7.9989 8.15985 8.53345C9.16174 9.06799 10.2608 9.39587 11.3918 9.4975L11.4041 9.4975C11.4208 9.49695 11.4373 9.49304 11.4525 9.48602C11.4677 9.479 11.4814 9.46899 11.4927 9.4566C11.5035 9.44415 11.5117 9.42963 11.5167 9.41394C11.5215 9.39819 11.5231 9.38159 11.5213 9.36523C11.4791 8.96924 11.5049 8.56891 11.5977 8.18158C11.679 7.84253 11.8173 7.51971 12.0068 7.22705C12.4044 6.60254 13.0101 6.13879 13.7168 5.91797C14.0482 5.81403 14.3935 5.76068 14.7408 5.75977C15.5286 5.75897 16.2895 6.04608 16.8804 6.56702C16.9557 6.63397 17.0524 6.67169 17.1531 6.6734C17.1863 6.67285 17.2193 6.66827 17.2513 6.65979C17.8068 6.51923 18.3391 6.29926 18.8318 6.00659C18.8615 5.98944 18.8956 5.98163 18.9297 5.98419C18.9639 5.98676 18.9965 5.99951 19.0233 6.02087C19.05 6.04224 19.0698 6.07111 19.0799 6.10382C19.09 6.1366 19.09 6.17157 19.08 6.20428C18.9147 6.7204 18.622 7.18658 18.2291 7.55975C18.5835 7.4751 18.9295 7.35828 19.2627 7.21069C19.2963 7.19568 19.3339 7.19208 19.3697 7.20038C19.4055 7.20868 19.4376 7.22845 19.4612 7.25665C19.4848 7.28491 19.4986 7.32001 19.5004 7.35675C19.5022 7.39349 19.492 7.42981 19.4713 7.46021Z" fill="#090F1D" fill-opacity="1.000000" fill-rule="nonzero"/>
</svg>
