<svg width="27.054321" height="28.001953" viewBox="0 0 27.0543 28.002" fill="none" xmlns="http://www.w3.org/2000/svg" xmlns:xlink="http://www.w3.org/1999/xlink">

	<g id="logo">
		<path id="Ellipse 4" d="M27.0543 8.94043C25.6581 5.33911 22.9303 2.64282 19.6512 1.1958C16.119 -0.366699 12.2835 -0.344482 8.94171 0.951172C5.33905 2.34375 2.64276 5.07153 1.19586 8.35083C-0.366821 11.8831 -0.344482 15.7185 0.95105 19.0603C2.34381 22.6628 5.07159 25.3591 8.35071 26.8062C11.883 28.3687 15.7184 28.3464 19.0602 27.0508C22.6629 25.6582 25.3592 22.9304 26.8094 19.6528L14.001 14.001L27.0543 8.94043Z" fill="#D3F85A" fill-opacity="1.000000" fill-rule="evenodd"/>
		<circle id="Ellipse 5" cx="6.000977" cy="14.000977" r="2.000000" fill="#090F1D" fill-opacity="1.000000"/>
	</g>

	<g id="clock">
		<path id="Vector" d="M12 22C6.47998 22 2 17.52 2 12C2 6.47998 6.47998 2 12 2C17.52 2 22 6.47998 22 12C22 17.52 17.52 22 12 22Z" stroke="#FFFFFF" stroke-opacity="1.000000" stroke-width="1.500000" stroke-linejoin="round"/>
		<path id="Vector" d="M15.71 15.1799L12.61 13.3301C12.07 13.01 11.63 12.24 11.63 11.6101L11.63 7.51001" stroke="#FFFFFF" stroke-opacity="1.000000" stroke-width="1.500000" stroke-linejoin="round" stroke-linecap="round"/>
		<g opacity="0.000000"/>
	</g>

	<g id="ether">
		<path id="Vector" d="M11.7 7C11.9 6.8999 12.1 6.8999 12.4 7L17.2 9.1001C17.6 9.30005 18.0001 8.80005 17.7 8.3999L12.7 2.30005C12.4 1.8999 11.8 1.8999 11.5001 2.30005L6.50006 8.3999C6.10004 8.80005 6.50006 9.30005 6.90002 9.1001L11.7 7Z" stroke="#FFFFFF" stroke-opacity="1.000000" stroke-width="1.500000" stroke-linejoin="round"/>
		<path id="Vector" d="M11.7 17C11.9 17.1001 12.1 17.1001 12.4 17L17.2 14.9001C17.6 14.7 18.0001 15.2 17.7 15.6001L12.7 21.7C12.4 22.1001 11.8 22.1001 11.5001 21.7L6.50006 15.6001C6.10004 15.2 6.50006 14.7 6.90002 14.9001L11.7 17Z" stroke="#FFFFFF" stroke-opacity="1.000000" stroke-width="1.500000" stroke-linejoin="round"/>
		<path id="Vector" d="M6.79999 12L12 14.5999L17.2 12L12 9.3999L6.79999 12Z" stroke="#FFFFFF" stroke-opacity="1.000000" stroke-width="1.500000" stroke-linejoin="round"/>
		<g opacity="0.000000">
			<path id="Vector" d="M24 0L24 24L0 24L0 0L24 0Z" stroke="#FFFFFF" stroke-opacity="1.000000" stroke-width="1.000000"/>
		</g>
	</g>

	<g id="circle">
		<path id="A" d="M5.29278 86.6683L15.6858 90.0543L15.7139 87.6545L13.2416 86.9855L13.2789 83.8017L15.7663 83.1908L15.7955 80.695L5.32598 83.8364L5.29278 86.6683ZM11.4074 86.4839L10.4504 86.2167Q9.66911 85.9835 8.80742 85.7814C8.22242 85.6359 7.65335 85.4958 7.10022 85.3614L7.10097 85.2974C7.64656 85.1651 8.21348 85.033 8.80173 84.9013C9.39011 84.7588 9.94643 84.6213 10.4707 84.4888L11.4334 84.2601L11.4074 86.4839Z" fill="#FFFFFF" fill-opacity="1.000000" fill-rule="evenodd"/>
		<path id="r" d="M8.86943 72.7044L16.6473 74.2805L17.1145 71.9754L12.5983 71.0602Q11.8777 70.5877 11.6595 70.0537C11.5056 69.6851 11.4583 69.3545 11.5176 69.0618Q11.5685 68.8109 11.638 68.629C11.6864 68.4974 11.7453 68.3678 11.8147 68.2404L9.89942 67.4605C9.82596 67.5544 9.76395 67.6725 9.71338 67.8146C9.65236 67.9546 9.59961 68.1344 9.55512 68.3539Q9.43437 68.9498 9.70565 69.6251Q9.96125 70.2973 10.6595 70.8795L10.6468 70.9423L9.25075 70.8226L8.86943 72.7044Z" fill="#FFFFFF" fill-opacity="1.000000" fill-rule="evenodd"/>
		<path id="t" d="M19.5156 61.716Q20.3452 61.3378 20.8038 60.1456Q21.0106 59.6081 21.0761 59.1704C21.1236 58.8687 21.1539 58.6117 21.1669 58.3996L19.4369 58.1284C19.4385 58.2433 19.4293 58.3712 19.4094 58.5121C19.3933 58.643 19.3622 58.7682 19.3163 58.8877Q19.1969 59.1981 18.9718 59.371Q18.8829 59.4393 18.7775 59.4862Q18.3961 59.6309 17.7689 59.3896L14.7972 58.2464L15.4808 56.4694L13.7635 55.8088L13.0799 57.5858L11.1087 56.8275L10.4079 58.6494L12.2814 59.6615L11.9344 60.8309L13.5621 61.4571L13.9528 60.4416L16.9543 61.5963Q18.2386 62.0903 19.2541 61.8124Q19.3891 61.7736 19.5156 61.716Z" fill="#FFFFFF" fill-opacity="1.000000" fill-rule="evenodd"/>
		<path id="w" d="M17.0683 48.4129L24.8035 51.0743L26.2684 48.8205L23.9959 46.5038C23.7235 46.2377 23.4454 45.9806 23.1614 45.7324C22.8833 45.4753 22.5857 45.1992 22.2686 44.9041L22.3035 44.8504C22.7019 45.0203 23.0751 45.1802 23.423 45.33L24.4842 45.7525L27.5328 46.8753L29.0325 44.5679L23.4162 38.6466L22.2303 40.4711L24.906 43.1071C25.1962 43.3848 25.4878 43.6506 25.7807 43.9046C26.0794 44.1496 26.3783 44.4139 26.6775 44.6974L26.6426 44.7511C26.2621 44.5928 25.8876 44.4448 25.5191 44.307C25.1564 44.1604 24.7835 44.0198 24.4003 43.8852L20.8265 42.6309L19.7191 44.3347L22.325 47.078Q22.7161 47.5039 23.1514 47.9204C23.4474 48.1892 23.745 48.4653 24.0442 48.7488L24.0093 48.8025C23.6346 48.6352 23.2717 48.4693 22.9207 48.3048Q22.3941 48.058 21.8454 47.8158L18.3414 46.4543L17.0683 48.4129Z" fill="#FFFFFF" fill-opacity="1.000000" fill-rule="evenodd"/>
		<path id="o" d="M35.3511 36.7214C36.0025 36.5344 36.569 36.2067 37.0508 35.7382Q37.4287 35.3708 37.6899 34.9338Q37.9284 34.5349 38.0698 34.0779Q38.1473 33.8145 38.1848 33.5456Q38.2851 32.8249 38.098 32.0643Q37.83 31.0083 36.9154 30.0676Q35.9896 29.1155 34.9526 28.8294C34.2613 28.6387 33.5938 28.6331 32.9501 28.8126Q32.4537 28.9437 32.0229 29.1897Q31.6061 29.4277 31.2508 29.7732Q30.9352 30.08 30.7009 30.4398Q30.3986 30.9039 30.2315 31.4561C30.0339 32.0945 30.0208 32.7619 30.1921 33.4583Q30.449 34.5029 31.3748 35.455Q32.2894 36.3956 33.3375 36.6932Q34.0926 36.9015 34.8158 36.8214Q35.0857 36.7915 35.3511 36.7214ZM36.0797 33.1788C36.1864 33.6404 36.0676 34.0385 35.7235 34.3732Q35.4405 34.6483 35.1116 34.7243Q34.8271 34.7901 34.5081 34.7069Q33.8208 34.5049 33.1069 33.7707Q32.3819 33.0251 32.2104 32.3438Q32.1362 32.0227 32.2099 31.7401Q32.2951 31.4134 32.5781 31.1383Q32.8431 30.8805 33.1534 30.8024Q33.4474 30.7285 33.782 30.8157Q34.4697 30.9951 35.1947 31.7407Q35.9085 32.4749 36.0797 33.1788Z" fill="#FFFFFF" fill-opacity="1.000000" fill-rule="evenodd"/>
		<path id="r" d="M40.3451 22.3611L44.7613 28.9549L46.7155 27.6461L44.1513 23.8174Q43.972 22.9747 44.1927 22.4417C44.3428 22.0716 44.5419 21.8034 44.7901 21.6372Q45.0028 21.4947 45.1801 21.4145C45.3072 21.355 45.4402 21.3045 45.5792 21.2628L44.7675 19.3608C44.6492 19.3758 44.522 19.416 44.3861 19.4814C44.2442 19.5379 44.0802 19.6285 43.8941 19.7531Q43.3889 20.0915 43.1063 20.7621Q42.8149 21.4195 42.9011 22.3246L42.8479 22.3602L41.9404 21.2927L40.3451 22.3611Z" fill="#FFFFFF" fill-opacity="1.000000" fill-rule="evenodd"/>
		<path id="k" d="M50.2989 12.598L54.7583 22.8894L56.8577 21.9797L56.0816 20.1886L56.5548 18.7455L59.4269 20.8664L61.7611 19.8549L57.1582 16.7577L58.4149 12.6559L56.066 13.6737L55.0143 17.5646L54.9556 17.5901L52.3982 11.6883L50.2989 12.598Z" fill="#FFFFFF" fill-opacity="1.000000" fill-rule="evenodd"/>
		<path id="o" d="M68.9533 17.4666C69.6049 17.6526 70.2591 17.6744 70.9158 17.5319Q71.4308 17.4201 71.8838 17.1875Q72.2972 16.9753 72.659 16.6624Q72.8642 16.4799 73.0383 16.2715Q73.5048 15.7131 73.7486 14.9687Q74.08 13.9308 73.8017 12.6487Q73.5201 11.3509 72.7916 10.5594C72.306 10.0317 71.7426 9.67373 71.1014 9.48544Q70.6108 9.33393 70.1151 9.31467Q69.6355 9.29603 69.1512 9.40115Q68.721 9.4945 68.3319 9.67573Q67.8297 9.90956 67.3957 10.2897C66.8902 10.7268 66.5259 11.2862 66.3027 11.9677Q65.9679 12.99 66.2496 14.2877Q66.5278 15.5699 67.2597 16.377Q67.7901 16.9534 68.4461 17.2681Q68.691 17.3856 68.9533 17.4666ZM71.4463 14.8463C71.2925 15.2944 70.981 15.5694 70.512 15.6712Q70.1263 15.7549 69.8069 15.6453Q69.5307 15.5505 69.3041 15.3112Q68.8278 14.776 68.6106 13.7753Q68.39 12.759 68.6051 12.0902Q68.712 11.7784 68.9241 11.5777Q69.1693 11.3455 69.555 11.2618Q69.9163 11.1834 70.2209 11.2814Q70.5095 11.3741 70.7472 11.6252Q71.2358 12.1414 71.4563 13.1577Q71.6735 14.1584 71.4463 14.8463Z" fill="#FFFFFF" fill-opacity="1.000000" fill-rule="evenodd"/>
		<path id="f" d="M81.2195 9.76432L81.4599 15.8556L83.8101 15.7628L83.5697 9.67156L84.9926 9.6154L84.92 7.77683L83.4971 7.83299L83.4782 7.35337Q83.4542 6.74584 83.6839 6.48057C83.8366 6.29307 84.0569 6.19364 84.3447 6.18228C84.4726 6.17724 84.6064 6.18796 84.7463 6.21447C84.8857 6.23032 85.0257 6.26215 85.1664 6.30998L85.5299 4.56628C85.3568 4.50906 85.1305 4.45395 84.8508 4.40094C84.5712 4.34792 84.2662 4.32794 83.9357 4.34098Q82.8646 4.38326 82.2415 4.82417Q81.8884 5.07401 81.6517 5.40664Q81.4707 5.66106 81.3577 5.96391Q81.0971 6.66273 81.1305 7.51007L81.1476 7.94174L80.0956 8.06332L80.1643 9.80596L81.2195 9.76432Z" fill="#FFFFFF" fill-opacity="1.000000" fill-rule="evenodd"/>
		<path id="t" d="M92.9581 15.6468Q93.5272 16.3591 94.7953 16.5132Q95.3671 16.5826 95.8075 16.5394C96.1117 16.5119 96.3682 16.4786 96.5771 16.4395L96.4183 14.6956C96.3072 14.7251 96.181 14.7474 96.0395 14.7624C95.9085 14.7788 95.7795 14.7792 95.6525 14.7638Q95.3223 14.7237 95.0997 14.5475Q95.0118 14.478 94.9407 14.3872Q94.7073 14.0526 94.7884 13.3855L95.1723 10.2247L97.0624 10.4543L97.2843 8.62777L95.3942 8.39817L95.6489 6.30158L93.7111 6.0662L93.1864 8.12999L91.9677 8.07866L91.7574 9.80993L92.8375 9.94113L92.4497 13.1337Q92.2837 14.4996 92.8009 15.4167Q92.8714 15.5382 92.9581 15.6468Z" fill="#FFFFFF" fill-opacity="1.000000" fill-rule="evenodd"/>
		<path id="h" d="M106.726 7.1697L103.314 17.8542L105.555 18.5696L107.185 13.4636Q107.663 13.2299 108.026 13.1443C108.272 13.0771 108.537 13.089 108.821 13.1798Q109.209 13.3037 109.362 13.5651Q109.401 13.6323 109.425 13.7085Q109.556 14.0864 109.293 14.9094L107.887 19.3143L110.127 20.0298L111.626 15.3353Q112.079 13.9178 111.773 12.9299Q111.698 12.6681 111.558 12.4478Q111.163 11.8282 110.253 11.5374Q109.524 11.3049 108.866 11.4318Q108.835 11.4377 108.804 11.4444C108.36 11.5378 107.955 11.666 107.59 11.8292L108.129 10.5067L108.967 7.88515L106.726 7.1697Z" fill="#FFFFFF" fill-opacity="1.000000" fill-rule="evenodd"/>
		<path id="e" d="M118.492 23.4729C118.86 24.0588 119.375 24.537 120.035 24.9075Q120.649 25.252 121.422 25.4106C121.938 25.5163 122.44 25.5474 122.929 25.5038L122.942 23.8783Q121.931 23.9161 121.191 23.5012Q120.62 23.1807 120.321 22.6931Q120.263 22.5972 120.215 22.4948C120.025 22.0703 120.024 21.5807 120.213 21.0262L124.357 23.3511C124.423 23.2779 124.512 23.1627 124.624 23.0057C124.742 22.8394 124.851 22.6678 124.95 22.4911Q125.482 21.5422 125.562 20.6148Q125.626 20.0318 125.488 19.5007Q125.406 19.1813 125.251 18.8807Q124.859 18.074 123.869 17.5182Q123.637 17.3884 123.391 17.2969Q122.763 17.0631 122.041 17.0802Q121.827 17.0823 121.616 17.1091Q120.845 17.207 120.117 17.6332Q119.202 18.1843 118.568 19.3145Q117.926 20.4588 117.933 21.5265Q117.936 22.1597 118.132 22.7265Q118.267 23.1154 118.492 23.4729ZM123.456 21.066L120.958 19.6648Q121.438 19.0716 121.995 18.962Q122.344 18.8855 122.659 18.9584Q122.853 19.0032 123.034 19.1046Q123.532 19.3844 123.662 19.7838Q123.691 19.876 123.701 19.9745Q123.703 19.9828 123.704 19.9912Q123.772 20.5031 123.456 21.066Z" fill="#FFFFFF" fill-opacity="1.000000" fill-rule="evenodd"/>
		<path id="w" d="M133.491 23.8002L129.646 31.0204L131.641 32.8216L134.286 30.9417C134.592 30.7146 134.89 30.4804 135.179 30.239C135.477 30.0048 135.797 29.7543 136.138 29.4876L136.185 29.5305C135.955 29.8973 135.738 30.2406 135.536 30.5607L134.952 31.5421L133.363 34.3762L135.406 36.2202L142.137 31.6052L140.522 30.1471L137.498 32.3748C137.178 32.6178 136.869 32.8639 136.573 33.1132C136.284 33.3696 135.976 33.6233 135.649 33.8741L135.601 33.8312C135.817 33.4803 136.022 33.1338 136.216 32.7916C136.418 32.4565 136.616 32.1103 136.809 31.753L138.61 28.421L137.101 27.0594L133.982 29.2014Q133.5 29.5206 133.02 29.885C132.708 30.135 132.389 30.3855 132.062 30.6363L132.014 30.5935C132.238 30.2497 132.459 29.9174 132.677 29.5966Q133.004 29.1155 133.329 28.6117L135.225 25.3654L133.491 23.8002Z" fill="#FFFFFF" fill-opacity="1.000000" fill-rule="evenodd"/>
		<path id="e" d="M142.174 43.6853C142.254 44.3729 142.511 45.0262 142.947 45.6455Q143.353 46.2211 143.982 46.6979C144.401 47.0157 144.841 47.2605 145.301 47.4323L146.014 45.9715Q145.085 45.5689 144.597 44.8755Q144.22 44.3399 144.161 43.7714Q144.15 43.6595 144.15 43.5463C144.162 43.0814 144.373 42.6395 144.782 42.2207L147.518 46.1063C147.609 46.0685 147.739 46.0031 147.908 45.91C148.086 45.8108 148.258 45.7028 148.424 45.5861Q149.313 44.9598 149.786 44.1576Q150.095 43.6592 150.2 43.1209Q150.263 42.7971 150.253 42.4589Q150.248 41.5624 149.594 40.6335Q149.441 40.4164 149.259 40.2278Q148.793 39.7458 148.134 39.4499Q147.94 39.3593 147.738 39.2923Q147.001 39.0482 146.16 39.1183Q145.097 39.2208 144.037 39.9669Q142.964 40.7222 142.509 41.6881Q142.24 42.261 142.172 42.8569Q142.125 43.2657 142.174 43.6853ZM147.691 43.656L146.042 41.3142Q146.731 40.986 147.28 41.1273Q147.629 41.2092 147.882 41.4109Q148.037 41.535 148.156 41.7043Q148.486 42.172 148.43 42.5879Q148.417 42.684 148.383 42.7773Q148.381 42.7853 148.378 42.7933Q148.219 43.2844 147.691 43.656Z" fill="#FFFFFF" fill-opacity="1.000000" fill-rule="evenodd"/>
		<path id="e" d="M149.267 55.4217C149.212 56.1116 149.338 56.8025 149.646 57.4946Q149.932 58.1379 150.457 58.7276C150.806 59.1208 151.19 59.4462 151.608 59.704L152.591 58.4092Q151.758 57.8341 151.413 57.0592Q151.147 56.4606 151.2 55.8914Q151.21 55.7794 151.233 55.6686C151.335 55.2148 151.627 54.8222 152.11 54.4907L154.04 58.8331C154.137 58.8136 154.277 58.7747 154.461 58.7162C154.655 58.6533 154.844 58.5808 155.03 58.4985Q156.024 58.0566 156.643 57.3612Q157.043 56.9321 157.25 56.4245Q157.375 56.1191 157.431 55.7854Q157.6 54.9049 157.138 53.8668Q157.03 53.6242 156.888 53.4039Q156.525 52.8406 155.936 52.4226Q155.763 52.296 155.578 52.1911Q154.902 51.8087 154.063 51.7143Q153 51.6088 151.816 52.1352Q150.617 52.668 149.984 53.5274Q149.608 54.0371 149.426 54.6086Q149.301 55.0006 149.267 55.4217ZM154.685 56.4629L153.522 53.8458Q154.261 53.6573 154.773 53.9026Q155.099 54.0505 155.308 54.2974Q155.436 54.4492 155.52 54.6385Q155.753 55.1611 155.617 55.5583Q155.586 55.6501 155.535 55.7351Q155.531 55.7425 155.527 55.7498Q155.275 56.2007 154.685 56.4629Z" fill="#FFFFFF" fill-opacity="1.000000" fill-rule="evenodd"/>
		<path id="k" d="M164.259 64.4303L153.32 66.9115L153.827 69.1428L155.73 68.711L157.061 69.4427L154.446 71.8734L155.009 74.3544L158.903 70.403L162.702 72.3959L162.136 69.8994L158.506 68.1469L158.492 68.0845L164.765 66.6616L164.259 64.4303Z" fill="#FFFFFF" fill-opacity="1.000000" fill-rule="evenodd"/>
		<path id="A" d="M166.197 82.2655L155.699 79.2204L155.749 81.6198L158.242 82.2078L158.309 85.3911L155.843 86.0828L155.895 88.5783L166.256 85.0969L166.197 82.2655ZM160.092 82.6492L161.057 82.8851Q161.846 83.0927 162.713 83.2666C163.303 83.3929 163.876 83.5143 164.433 83.6307L164.435 83.6947C163.894 83.8447 163.331 83.9951 162.748 84.146C162.164 84.3076 161.613 84.4632 161.093 84.6127L160.138 84.8728L160.092 82.6492Z" fill="#FFFFFF" fill-opacity="1.000000" fill-rule="evenodd"/>
		<path id="r" d="M163.078 96.3386L155.253 95.0171L154.861 97.3363L159.405 98.1036Q160.14 98.5524 160.376 99.0789C160.542 99.4423 160.6 99.7712 160.55 100.066Q160.508 100.318 160.444 100.502C160.4 100.635 160.345 100.767 160.28 100.896L162.22 101.613C162.29 101.517 162.348 101.397 162.394 101.253C162.451 101.111 162.497 100.93 162.535 100.709Q162.636 100.11 162.343 99.4435Q162.065 98.7801 161.349 98.2209L161.359 98.1578L162.758 98.2318L163.078 96.3386Z" fill="#FFFFFF" fill-opacity="1.000000" fill-rule="evenodd"/>
		<path id="t" d="M152.796 107.668Q151.979 108.074 151.56 109.28Q151.371 109.824 151.32 110.264C151.282 110.567 151.26 110.825 151.254 111.037L152.992 111.252C152.987 111.137 152.992 111.009 153.007 110.867C153.019 110.736 153.046 110.61 153.088 110.489Q153.197 110.175 153.416 109.994Q153.503 109.923 153.607 109.873Q153.983 109.716 154.618 109.937L157.625 110.982L157 112.781L158.738 113.385L159.363 111.586L161.358 112.28L161.999 110.436L160.094 109.486L160.402 108.306L158.755 107.733L158.398 108.761L155.36 107.705Q154.06 107.253 153.054 107.564Q152.921 107.607 152.796 107.668Z" fill="#FFFFFF" fill-opacity="1.000000" fill-rule="evenodd"/>
		<path id="w" d="M155.676 120.885L147.858 118.477L146.468 120.778L148.815 123.019C149.096 123.276 149.382 123.524 149.674 123.763C149.96 124.011 150.267 124.277 150.593 124.561L150.56 124.616C150.156 124.459 149.778 124.312 149.426 124.173L148.351 123.786L145.268 122.763L143.844 125.118L149.65 130.853L150.776 128.991L148.016 126.443C147.717 126.175 147.417 125.919 147.116 125.675C146.809 125.44 146.502 125.185 146.193 124.912L146.227 124.857C146.612 125.003 146.991 125.139 147.364 125.264C147.731 125.399 148.109 125.527 148.496 125.649L152.109 126.786L153.16 125.047L150.466 122.39Q150.061 121.978 149.612 121.575C149.308 121.316 149.001 121.05 148.693 120.777L148.726 120.722C149.106 120.877 149.474 121.031 149.831 121.184Q150.365 121.413 150.921 121.637L154.468 122.884L155.676 120.885Z" fill="#FFFFFF" fill-opacity="1.000000" fill-rule="evenodd"/>
		<path id="o" d="M137.785 133.166C137.14 133.375 136.584 133.721 136.118 134.205Q135.752 134.584 135.505 135.029Q135.28 135.436 135.154 135.897Q135.085 136.163 135.056 136.433Q134.979 137.157 135.191 137.911Q135.494 138.957 136.438 139.868Q137.395 140.789 138.44 141.041C139.138 141.209 139.805 141.193 140.442 140.993Q140.934 140.846 141.357 140.586Q141.766 140.334 142.11 139.977Q142.415 139.66 142.637 139.293Q142.924 138.819 143.073 138.262C143.25 137.617 143.241 136.95 143.047 136.26Q142.757 135.224 141.8 134.302Q140.855 133.392 139.798 133.129Q139.037 132.945 138.316 133.049Q138.048 133.088 137.785 133.166ZM137.172 136.731C137.05 136.273 137.156 135.871 137.489 135.526Q137.763 135.241 138.089 135.155Q138.371 135.08 138.693 135.152Q139.387 135.332 140.124 136.042Q140.873 136.764 141.067 137.439Q141.151 137.758 141.087 138.043Q141.012 138.372 140.738 138.656Q140.482 138.922 140.174 139.011Q139.883 139.094 139.546 139.018Q138.853 138.861 138.104 138.139Q137.366 137.429 137.172 136.731Z" fill="#FFFFFF" fill-opacity="1.000000" fill-rule="evenodd"/>
		<path id="r" d="M133.262 147.682L128.633 141.236L126.722 142.608L129.41 146.351Q129.617 147.187 129.414 147.727C129.276 148.102 129.086 148.377 128.843 148.551Q128.635 148.7 128.46 148.786C128.335 148.85 128.204 148.905 128.066 148.951L128.94 150.825C129.058 150.806 129.183 150.762 129.317 150.692C129.457 150.631 129.618 150.535 129.8 150.405Q130.294 150.05 130.554 149.371Q130.824 148.704 130.708 147.802L130.76 147.765L131.702 148.802L133.262 147.682Z" fill="#FFFFFF" fill-opacity="1.000000" fill-rule="evenodd"/>
		<path id="k" d="M123.632 157.765L118.839 147.624L116.771 148.602L117.605 150.367L117.179 151.825L114.239 149.799L111.939 150.886L116.641 153.831L115.518 157.972L117.833 156.878L118.757 152.955L118.815 152.927L121.563 158.743L123.632 157.765Z" fill="#FFFFFF" fill-opacity="1.000000" fill-rule="evenodd"/>
		<path id="o" d="M104.829 153.508C104.171 153.343 103.517 153.343 102.865 153.507Q102.354 153.635 101.909 153.882Q101.503 154.108 101.151 154.433Q100.952 154.622 100.785 154.836Q100.337 155.409 100.117 156.161Q99.8201 157.209 100.14 158.481Q100.464 159.769 101.218 160.537C101.72 161.048 102.295 161.388 102.942 161.555Q103.437 161.69 103.934 161.693Q104.413 161.696 104.894 161.575Q105.321 161.468 105.704 161.274Q106.198 161.024 106.62 160.63C107.111 160.177 107.457 159.606 107.657 158.917Q107.959 157.885 107.635 156.597Q107.315 155.324 106.557 154.542Q106.008 153.983 105.342 153.69Q105.094 153.58 104.829 153.508ZM102.423 156.208C102.562 155.755 102.864 155.47 103.329 155.353Q103.712 155.257 104.035 155.356Q104.314 155.442 104.548 155.674Q105.042 156.193 105.292 157.186Q105.545 158.195 105.352 158.87Q105.255 159.185 105.05 159.393Q104.813 159.633 104.43 159.729Q104.071 159.819 103.764 159.731Q103.472 159.648 103.226 159.405Q102.721 158.905 102.468 157.896Q102.218 156.903 102.423 156.208Z" fill="#FFFFFF" fill-opacity="1.000000" fill-rule="evenodd"/>
		<path id="f" d="M92.8204 161.606L92.3813 155.526L90.0354 155.695L90.4745 161.775L89.0542 161.878L89.1867 163.713L90.607 163.611L90.6416 164.089Q90.6853 164.696 90.4644 164.968C90.3179 165.161 90.101 165.267 89.8137 165.288C89.6861 165.297 89.5519 165.291 89.4113 165.269C89.2715 165.258 89.1305 165.23 88.9883 165.187L88.6819 166.942C88.8567 166.993 89.0848 167.041 89.366 167.085C89.6472 167.129 89.9527 167.139 90.2825 167.115Q91.3518 167.038 91.9601 166.577Q92.3049 166.316 92.5306 165.975Q92.7032 165.715 92.8062 165.409Q93.0439 164.702 92.9828 163.856L92.9517 163.425L93.9992 163.269L93.8736 161.53L92.8204 161.606Z" fill="#FFFFFF" fill-opacity="1.000000" fill-rule="evenodd"/>
		<path id="t" d="M80.8961 156.11Q80.304 155.416 79.0316 155.304Q78.4579 155.253 78.0191 155.311C77.716 155.348 77.4606 155.39 77.2531 155.435L77.4688 157.173C77.5788 157.14 77.7043 157.114 77.8452 157.094C77.9756 157.074 78.1045 157.069 78.232 157.08Q78.5633 157.109 78.7915 157.278Q78.8816 157.345 78.9557 157.433Q79.1998 157.76 79.1406 158.429L78.86 161.601L76.9634 161.433L76.8012 163.266L78.6978 163.434L78.5117 165.538L80.4561 165.71L80.9132 163.63L82.1329 163.641L82.2866 161.904L81.2028 161.808L81.4863 158.605Q81.6075 157.234 81.0607 156.335Q80.9863 156.215 80.8961 156.11Z" fill="#FFFFFF" fill-opacity="1.000000" fill-rule="evenodd"/>
		<path id="h" d="M67.4121 165.032L70.4734 154.242L68.2107 153.6L66.7477 158.756Q66.2779 159.005 65.9176 159.103C65.6745 159.178 65.4093 159.175 65.122 159.093Q64.7301 158.982 64.5689 158.726Q64.5275 158.66 64.5013 158.584Q64.3577 158.211 64.5936 157.38L65.8557 152.931L63.593 152.289L62.2479 157.03Q61.8418 158.462 62.1798 159.439Q62.2633 159.698 62.4107 159.914Q62.8252 160.52 63.7449 160.781Q64.4802 160.99 65.1346 160.842Q65.1652 160.835 65.1955 160.827C65.6364 160.719 66.0368 160.578 66.3969 160.403L65.9005 161.742L65.1494 164.39L67.4121 165.032Z" fill="#FFFFFF" fill-opacity="1.000000" fill-rule="evenodd"/>
		<path id="e" d="M55.1207 149.121C54.7333 148.547 54.2035 148.086 53.5313 147.738Q52.9064 147.413 52.1283 147.28C51.6096 147.191 51.1065 147.176 50.619 147.236L50.6591 148.861Q51.6692 148.79 52.4219 149.181Q53.0034 149.482 53.3174 149.96Q53.3792 150.054 53.4307 150.155C53.6343 150.573 53.6509 151.062 53.4803 151.623L49.2622 149.434C49.1991 149.509 49.1138 149.627 49.0065 149.788C48.8942 149.958 48.7914 150.133 48.6981 150.313Q48.197 151.279 48.1473 152.208Q48.1028 152.793 48.2573 153.319Q48.3502 153.636 48.5151 153.931Q48.9326 154.725 49.941 155.248Q50.1766 155.37 50.4253 155.454Q51.0609 155.667 51.7816 155.626Q51.9959 155.617 52.2062 155.583Q52.9729 155.46 53.6872 155.011Q54.5833 154.43 55.1802 153.28Q55.7844 152.115 55.7431 151.048Q55.7186 150.415 55.5042 149.855Q55.3572 149.471 55.1207 149.121ZM50.2375 151.689L52.7797 153.008Q52.3198 153.616 51.7669 153.744Q51.4199 153.832 51.1027 153.769Q50.9075 153.731 50.7237 153.635Q50.216 153.372 50.074 152.977Q50.0412 152.886 50.0279 152.787Q50.0264 152.779 50.025 152.771Q49.9403 152.262 50.2375 151.689Z" fill="#FFFFFF" fill-opacity="1.000000" fill-rule="evenodd"/>
		<path id="w" d="M40.119 149.283L43.7263 141.941L41.6733 140.206L39.0907 142.172C38.7927 142.408 38.5028 142.652 38.2211 142.903C37.9312 143.147 37.6201 143.408 37.2876 143.685L37.2387 143.644C37.4571 143.27 37.6624 142.92 37.8545 142.593L38.4063 141.593L39.9014 138.709L37.7995 136.932L31.2226 141.765L32.8846 143.169L35.8344 140.844C36.1461 140.591 36.4463 140.335 36.7349 140.076C37.0154 139.81 37.3149 139.547 37.6336 139.285L37.6825 139.326C37.4779 139.684 37.2842 140.037 37.1015 140.386C36.9107 140.727 36.7246 141.08 36.5431 141.443L34.852 144.832L36.404 146.144L39.4515 143.901Q39.923 143.566 40.3907 143.186C40.6943 142.926 41.0055 142.666 41.3241 142.404L41.373 142.445C41.1603 142.796 40.9503 143.136 40.7432 143.463Q40.4325 143.955 40.1237 144.469L38.3348 147.775L40.119 149.283Z" fill="#FFFFFF" fill-opacity="1.000000" fill-rule="evenodd"/>
		<path id="e" d="M30.7915 129.692C30.6894 129.008 30.4105 128.363 29.9545 127.758Q29.5307 127.196 28.8863 126.74C28.4567 126.436 28.0092 126.206 27.5437 126.049L26.8787 127.533Q27.8205 127.905 28.331 128.582Q28.7254 129.105 28.8027 129.671Q28.8179 129.783 28.8208 129.896C28.8241 130.361 28.6279 130.809 28.2322 131.241L25.3713 127.447C25.2818 127.488 25.154 127.557 24.9878 127.656C24.8132 127.761 24.6449 127.874 24.4831 127.996Q23.6144 128.651 23.1685 129.469Q22.876 129.977 22.7883 130.518Q22.7356 130.844 22.7568 131.182Q22.7911 132.077 23.4751 132.985Q23.6349 133.196 23.8232 133.379Q24.3046 133.846 24.9724 134.12Q25.1696 134.204 25.3738 134.264Q26.1186 134.484 26.9571 134.387Q28.0159 134.25 29.0507 133.469Q30.0983 132.68 30.5214 131.699Q30.7723 131.118 30.8206 130.52Q30.8537 130.11 30.7915 129.692ZM25.2784 129.902L27.0026 132.188Q26.3251 132.539 25.7712 132.415Q25.4203 132.345 25.1611 132.152Q25.0017 132.033 24.877 131.867Q24.5327 131.411 24.5749 130.993Q24.5847 130.897 24.6151 130.802Q24.6173 130.794 24.6196 130.786Q24.763 130.29 25.2784 129.902Z" fill="#FFFFFF" fill-opacity="1.000000" fill-rule="evenodd"/>
		<path id="e" d="M23.319 118.194C23.3517 117.502 23.203 116.816 22.873 116.134Q22.5662 115.5 22.0225 114.928C21.66 114.547 21.2657 114.234 20.8394 113.99L19.8994 115.316Q20.7511 115.864 21.1206 116.627Q21.4061 117.217 21.372 117.787Q21.3653 117.899 21.3463 118.011C21.2593 118.468 20.9799 118.87 20.5079 119.217L18.4372 114.94C18.3415 114.962 18.2026 115.006 18.0205 115.07C17.8288 115.139 17.6417 115.218 17.4593 115.306Q16.48 115.781 15.8841 116.496Q15.4987 116.938 15.3076 117.452Q15.1927 117.761 15.1481 118.096Q15.008 118.982 15.503 120.004Q15.6187 120.243 15.768 120.459Q16.1498 121.01 16.7517 121.409Q16.9288 121.529 17.1175 121.628Q17.8054 121.988 18.6469 122.055Q19.7123 122.126 20.8787 121.561Q22.0596 120.99 22.6648 120.11Q23.0237 119.588 23.187 119.011Q23.2991 118.615 23.319 118.194ZM17.87 117.33L19.118 119.907Q18.3854 120.12 17.8659 119.891Q17.5353 119.754 17.3186 119.514Q17.1853 119.367 17.095 119.18Q16.8458 118.666 16.9682 118.264Q16.9965 118.171 17.0446 118.085Q17.0483 118.077 17.0522 118.07Q17.289 117.611 17.87 117.33Z" fill="#FFFFFF" fill-opacity="1.000000" fill-rule="evenodd"/>
		<path id="k" d="M8.04177 109.679L18.8931 106.842L18.3144 104.629L16.4259 105.122L15.0719 104.434L17.6062 101.92L16.9628 99.4583L13.1994 103.535L9.33743 101.667L9.98491 104.143L13.6698 105.777L13.686 105.838L7.46308 107.465L8.04177 109.679Z" fill="#FFFFFF" fill-opacity="1.000000" fill-rule="evenodd"/>
		<path id=" " d="" fill="#FFFFFF" fill-opacity="1.000000" fill-rule="evenodd"/>
		<path id=" " d="" fill="#FFFFFF" fill-opacity="1.000000" fill-rule="evenodd"/>
	</g>

	<!-- Social Links -->

	<g id="facebook">
		<path id="Vector" d="M3.27271 0L20.7273 0C22.5347 0 24 1.46527 24 3.27271L24 20.7273C24 22.5347 22.5347 24 20.7273 24L3.27271 24C1.46527 24 0 22.5347 0 20.7273L0 3.27271C0 1.46527 1.46527 0 3.27271 0Z" fill="#D3F85A" fill-opacity="1.000000" fill-rule="evenodd"/>
		<path id="Vector" d="M15.8018 10.5791L15.5605 12.6696C15.5505 12.765 15.5057 12.8533 15.4349 12.9179C15.364 12.9825 15.2719 13.0189 15.1759 13.02L12.9941 13.02L12.9832 19.2177C12.9839 19.2912 12.9557 19.3619 12.9047 19.4148C12.8537 19.4676 12.7839 19.4982 12.7104 19.5L10.5 19.5C10.4633 19.5 10.4269 19.4926 10.3931 19.4783C10.3593 19.4639 10.3287 19.4428 10.3032 19.4163C10.2777 19.3898 10.2579 19.3585 10.2448 19.3241C10.2318 19.2897 10.2258 19.2531 10.2273 19.2164L10.2273 13.02L8.59094 13.02C8.53955 13.0195 8.48877 13.0088 8.44147 12.9886C8.39417 12.9685 8.35132 12.9392 8.31537 12.9025C8.27942 12.8658 8.25104 12.8223 8.23187 12.7747C8.21271 12.7269 8.20312 12.676 8.20367 12.6246L8.1955 10.5341C8.19476 10.4825 8.20422 10.4313 8.22327 10.3834C8.24237 10.3354 8.27069 10.2917 8.30664 10.2548C8.34259 10.2178 8.3855 10.1883 8.43286 10.1679C8.48022 10.1475 8.53119 10.1366 8.58276 10.1359L10.2273 10.1359L10.2273 8.11774C10.2273 5.77502 11.6182 4.5 13.6582 4.5L15.33 4.5C15.3817 4.50055 15.4328 4.51129 15.4803 4.53156C15.5278 4.55188 15.5709 4.58142 15.607 4.61841C15.6431 4.6554 15.6716 4.69916 15.6907 4.74713C15.7099 4.79517 15.7194 4.8465 15.7186 4.89819L15.7186 6.65729C15.7194 6.70898 15.7099 6.76025 15.6907 6.80829C15.6716 6.85632 15.6431 6.90009 15.607 6.93707C15.5709 6.97406 15.5278 7.00354 15.4803 7.02386C15.4328 7.04419 15.3817 7.05493 15.33 7.05548L14.3046 7.05548C13.1959 7.05548 12.9805 7.60089 12.9805 8.3891L12.9805 10.1359L15.4173 10.1359C15.4727 10.1366 15.5273 10.149 15.5776 10.1724C15.6279 10.1957 15.6727 10.2294 15.709 10.2712C15.7453 10.3131 15.7724 10.3622 15.7884 10.4152C15.8044 10.4683 15.809 10.5241 15.8018 10.5791Z" fill="#090F1D" fill-opacity="1.000000" fill-rule="nonzero"/>
	</g>

	<g id="telegram">
		<path id="Vector" d="M3.27271 0L20.7273 0C22.5347 0 24 1.46527 24 3.27271L24 20.7273C24 22.5347 22.5347 24 20.7273 24L3.27271 24C1.46527 24 0 22.5347 0 20.7273L0 3.27271C0 1.46527 1.46527 0 3.27271 0Z" fill="#FFFFFF" fill-opacity="1.000000" fill-rule="evenodd"/>
		<path id="Vector" d="M18.5373 6.20428L18.2891 6.29431L4.81909 11.1475C4.72363 11.177 4.64069 11.2374 4.58325 11.3191C4.52576 11.4008 4.49701 11.4993 4.50159 11.5991C4.5061 11.699 4.54358 11.7944 4.60822 11.8707C4.67285 11.9468 4.76093 11.9995 4.85864 12.0202L8.34546 12.9747L8.99591 14.8839L9.64636 16.793C9.68378 16.8865 9.74341 16.9696 9.82013 17.0349C9.89691 17.1002 9.9884 17.1458 10.0868 17.1677C10.1851 17.1896 10.2874 17.1871 10.3846 17.1606C10.4818 17.134 10.571 17.0841 10.6446 17.0152L12.4459 15.3134L15.9832 17.712C16.4155 18.0066 17.0319 17.7884 17.1423 17.3029L19.485 6.9516C19.5995 6.43884 19.0596 6.01746 18.5373 6.20428ZM16.8177 8.50201L10.7319 13.4766L10.4455 13.7111C10.3826 13.761 10.3415 13.8334 10.3309 13.913L10.2668 14.442L10.0909 15.9284C10.0924 15.9465 10.0866 15.9644 10.0748 15.9782C10.063 15.992 10.0463 16.0006 10.0282 16.002C10.0101 16.0035 9.99219 15.9977 9.97839 15.9859C9.9646 15.9742 9.95599 15.9574 9.95459 15.9393L9.45959 14.4543L8.94818 12.9338C8.92657 12.8655 8.92944 12.7917 8.95636 12.7253C8.98322 12.6589 9.03241 12.6038 9.09546 12.5698L15.4282 8.93976L16.6201 8.25793C16.7932 8.15704 16.9705 8.37659 16.8177 8.50201Z" fill="#090F1D" fill-opacity="1.000000" fill-rule="nonzero"/>
	</g>

	<g id="twitter">
		<path id="Vector" d="M3.27271 0L20.7273 0C22.5347 0 24 1.46527 24 3.27271L24 20.7273C24 22.5347 22.5347 24 20.7273 24L3.27271 24C1.46527 24 0 22.5347 0 20.7273L0 3.27271C0 1.46527 1.46527 0 3.27271 0Z" fill="#FFFFFF" fill-opacity="1.000000" fill-rule="evenodd"/>
		<path id="Vector" d="M19.4713 7.46021C19.1153 7.99207 18.6819 8.46777 18.1854 8.87158C18.121 8.92279 18.069 8.98792 18.0334 9.06207C17.9977 9.13623 17.9793 9.21747 17.9795 9.29974L17.9795 9.35022C17.9738 10.4219 17.7771 11.4839 17.3986 12.4866C17.0087 13.5375 16.4296 14.508 15.6899 15.3502C14.7005 16.4781 13.426 17.3193 11.9999 17.7856C11.0603 18.0906 10.0779 18.2435 9.08997 18.2384C7.52539 18.2368 5.98901 17.8219 4.63635 17.0357C4.58789 17.0082 4.5498 16.9655 4.52789 16.9143C4.50598 16.8631 4.5014 16.8061 4.51495 16.752C4.52869 16.6986 4.55988 16.6513 4.60364 16.6177C4.6474 16.584 4.70117 16.5661 4.75635 16.5666L5.12994 16.5666C6.31915 16.5664 7.4812 16.2107 8.4668 15.5452C7.87927 15.4492 7.32953 15.1933 6.87781 14.8055C6.42609 14.4178 6.08984 13.9132 5.90588 13.347C5.89685 13.3192 5.89526 13.2894 5.90118 13.2606C5.90717 13.2319 5.92053 13.2052 5.93988 13.1832C5.95929 13.1612 5.98407 13.1446 6.01184 13.1351C6.03955 13.1255 6.06934 13.1234 6.09814 13.1288C6.27795 13.163 6.46057 13.1804 6.64362 13.1807L6.71179 13.1807C6.14233 12.919 5.66089 12.498 5.32574 11.9685C4.99054 11.439 4.81598 10.8237 4.82312 10.197C4.82355 10.1677 4.83154 10.1389 4.84631 10.1135C4.86115 10.0881 4.88226 10.0669 4.90765 10.0521C4.93304 10.0373 4.96185 10.0292 4.99121 10.0289C5.02063 10.0284 5.04962 10.0356 5.07544 10.0497C5.30646 10.1788 5.55426 10.2751 5.81177 10.3361C5.30188 9.83197 4.97363 9.17291 4.87866 8.46216C4.78363 7.7514 4.92719 7.02924 5.2868 6.40887C5.3006 6.38599 5.31958 6.3667 5.34229 6.3526C5.36493 6.3385 5.39062 6.33002 5.41724 6.32776C5.44385 6.3255 5.47058 6.32953 5.4953 6.3396C5.52008 6.34967 5.54205 6.36548 5.55951 6.38568C6.27368 7.26855 7.15796 7.9989 8.15985 8.53345C9.16174 9.06799 10.2608 9.39587 11.3918 9.4975L11.4041 9.4975C11.4208 9.49695 11.4373 9.49304 11.4525 9.48602C11.4677 9.479 11.4814 9.46899 11.4927 9.4566C11.5035 9.44415 11.5117 9.42963 11.5167 9.41394C11.5215 9.39819 11.5231 9.38159 11.5213 9.36523C11.4791 8.96924 11.5049 8.56891 11.5977 8.18158C11.679 7.84253 11.8173 7.51971 12.0068 7.22705C12.4044 6.60254 13.0101 6.13879 13.7168 5.91797C14.0482 5.81403 14.3935 5.76068 14.7408 5.75977C15.5286 5.75897 16.2895 6.04608 16.8804 6.56702C16.9557 6.63397 17.0524 6.67169 17.1531 6.6734C17.1863 6.67285 17.2193 6.66827 17.2513 6.65979C17.8068 6.51923 18.3391 6.29926 18.8318 6.00659C18.8615 5.98944 18.8956 5.98163 18.9297 5.98419C18.9639 5.98676 18.9965 5.99951 19.0233 6.02087C19.05 6.04224 19.0698 6.07111 19.0799 6.10382C19.09 6.1366 19.09 6.17157 19.08 6.20428C18.9147 6.7204 18.622 7.18658 18.2291 7.55975C18.5835 7.4751 18.9295 7.35828 19.2627 7.21069C19.2963 7.19568 19.3339 7.19208 19.3697 7.20038C19.4055 7.20868 19.4376 7.22845 19.4612 7.25665C19.4848 7.28491 19.4986 7.32001 19.5004 7.35675C19.5022 7.39349 19.492 7.42981 19.4713 7.46021Z" fill="#090F1D" fill-opacity="1.000000" fill-rule="nonzero"/>
	</g>

	<g id="linkedIn">
		<path id="Vector" d="M3.27271 0L20.7273 0C22.5347 0 24 1.46527 24 3.27271L24 20.7273C24 22.5347 22.5347 24 20.7273 24L3.27271 24C1.46527 24 0 22.5347 0 20.7273L0 3.27271C0 1.46527 1.46527 0 3.27271 0Z" fill="#FFFFFF" fill-opacity="1.000000" fill-rule="evenodd"/>
		<path id="Vector" d="M8.64545 6.54547C8.64545 6.95001 8.52551 7.34546 8.30078 7.68182C8.07599 8.01825 7.75653 8.2804 7.38281 8.43518C7.00903 8.59003 6.59778 8.63055 6.20099 8.55164C5.8042 8.47266 5.43976 8.27789 5.15369 7.99182C4.86761 7.70575 4.67279 7.34131 4.59387 6.94452C4.51495 6.54773 4.55548 6.13647 4.71027 5.7627C4.86511 5.38892 5.12726 5.06946 5.46362 4.84473C5.79999 4.61993 6.1955 4.5 6.60004 4.5C7.14252 4.5 7.66278 4.71552 8.04639 5.09912C8.42999 5.48273 8.64545 6.00299 8.64545 6.54547ZM8.18182 9.95453L8.18182 18.9914C8.18219 19.058 8.16937 19.1241 8.1441 19.1858C8.11884 19.2475 8.08167 19.3036 8.03461 19.3509C7.98761 19.3981 7.9317 19.4356 7.87018 19.4612C7.80859 19.4868 7.74261 19.5 7.6759 19.5L5.52002 19.5C5.45337 19.5002 5.38733 19.4872 5.32568 19.4617C5.26404 19.4363 5.20807 19.399 5.16095 19.3518C5.11377 19.3047 5.07642 19.2487 5.05103 19.1871C5.02557 19.1254 5.01257 19.0594 5.01276 18.9927L5.01276 9.95453C5.01276 9.82001 5.06622 9.69098 5.16132 9.59583C5.25647 9.50073 5.3855 9.44727 5.52002 9.44727L7.6759 9.44727C7.81024 9.44763 7.9389 9.50122 8.03375 9.59631C8.1286 9.69141 8.18182 9.82025 8.18182 9.95453ZM19.4509 14.6591L19.4509 19.0336C19.4511 19.0949 19.4391 19.1556 19.4158 19.2123C19.3924 19.269 19.3581 19.3205 19.3148 19.3638C19.2714 19.4072 19.2199 19.4415 19.1633 19.4648C19.1066 19.4882 19.0458 19.5002 18.9846 19.5L16.6664 19.5C16.6051 19.5002 16.5444 19.4882 16.4877 19.4648C16.431 19.4415 16.3796 19.4072 16.3362 19.3638C16.2928 19.3205 16.2585 19.269 16.2352 19.2123C16.2118 19.1556 16.1998 19.0949 16.2 19.0336L16.2 14.7941C16.2 14.1614 16.3855 12.0232 14.546 12.0232C13.1209 12.0232 12.8304 13.4864 12.7732 14.1436L12.7732 19.0336C12.7732 19.1561 12.725 19.2737 12.639 19.361C12.553 19.4483 12.4362 19.4982 12.3137 19.5L10.0746 19.5C10.0134 19.5 9.95282 19.4879 9.8963 19.4645C9.83978 19.441 9.78845 19.4066 9.7453 19.3633C9.70209 19.32 9.66785 19.2686 9.64459 19.212C9.62128 19.1555 9.60938 19.0948 9.60956 19.0336L9.60956 9.91498C9.60938 9.85382 9.62128 9.79321 9.64459 9.73663C9.66785 9.68005 9.70209 9.62866 9.7453 9.58533C9.78845 9.54199 9.83978 9.50763 9.8963 9.48419C9.95282 9.46069 10.0134 9.44861 10.0746 9.44861L12.3137 9.44861C12.4373 9.44861 12.556 9.49774 12.6434 9.58521C12.7309 9.67267 12.78 9.79132 12.78 9.91498L12.78 10.7032C13.3091 9.90955 14.0932 9.2973 15.7664 9.2973C19.4728 9.2973 19.4509 12.7582 19.4509 14.6591Z" fill="#090F1D" fill-opacity="1.000000" fill-rule="nonzero"/>
	</g>
	
</svg>
